HIERARCHY
ROOT Hips
{
	OFFSET 0.000000 0.000000 0.000000
	CHANNELS 6 Xposition Yposition Zposition Xrotation Yrotation Zrotation
	JOINT LeftUpLeg_virtual
	{
		OFFSET 0.000000 0.000000 0.000000
		CHANNELS 3 Xrotation Yrotation Zrotation
		JOINT LeftUpLeg
		{
			OFFSET 13.026900 -6.336304 -1.092800
			CHANNELS 3 Xrotation Yrotation Zrotation
			JOINT LeftLeg
			{
				OFFSET 0.524474 -46.096886 9.782700
				CHANNELS 3 Xrotation Yrotation Zrotation
				JOINT LeftFoot
				{
					OFFSET -0.524474 -53.427422 -12.948200
					CHANNELS 3 Xrotation Yrotation Zrotation
					JOINT LeftToeBase
					{
						OFFSET 0.192200 -14.009700 16.364100
						CHANNELS 3 Xrotation Yrotation Zrotation
						JOINT LeftToe_End
						{
							OFFSET -1.784700 -0.561700 9.474800
							CHANNELS 3 Xrotation Yrotation Zrotation
							End Site
							{
								OFFSET 0 0 0
							}
						}
					}
				}
			}
		}
	}
	JOINT RightUpLeg_virtual
	{
		OFFSET 0.000000 0.000000 0.000000
		CHANNELS 3 Xrotation Yrotation Zrotation
		JOINT RightUpLeg
		{
			OFFSET -12.883000 -6.336304 -1.092800
			CHANNELS 3 Xrotation Yrotation Zrotation
			JOINT RightLeg
			{
				OFFSET -0.524587 -46.096825 9.782800
				CHANNELS 3 Xrotation Yrotation Zrotation
				JOINT RightFoot
				{
					OFFSET 0.524587 -53.427383 -12.948300
					CHANNELS 3 Xrotation Yrotation Zrotation
					JOINT RightToeBase
					{
						OFFSET -0.192200 -14.009700 16.364100
						CHANNELS 3 Xrotation Yrotation Zrotation
						JOINT RightToe_End
						{
							OFFSET 1.784700 -0.561700 9.474800
							CHANNELS 3 Xrotation Yrotation Zrotation
							End Site
							{
								OFFSET 0 0 0
							}
						}
					}
				}
			}
		}
	}
	JOINT Spine_virtual
	{
		OFFSET 0.000000 0.000000 0.000000
		CHANNELS 3 Xrotation Yrotation Zrotation
		JOINT Spine
		{
			OFFSET 0.072000 7.257294 -0.789700
			CHANNELS 3 Xrotation Yrotation Zrotation
			JOINT Spine1
			{
				OFFSET 0.000000 12.508769 -0.658067
				CHANNELS 3 Xrotation Yrotation Zrotation
				JOINT Spine1_split
				{
					OFFSET 0.000000 12.508769 -0.658067
					CHANNELS 3 Xrotation Yrotation Zrotation
					JOINT Spine2
					{
						OFFSET 0.000000 12.508769 -0.658067
						CHANNELS 3 Xrotation Yrotation Zrotation
						JOINT Neck_virtual
						{
							OFFSET 0.000000 0.000000 0.000000
							CHANNELS 3 Xrotation Yrotation Zrotation
							JOINT Neck
							{
								OFFSET 0.000000 14.033295 7.520400
								CHANNELS 3 Xrotation Yrotation Zrotation
								JOINT Head
								{
									OFFSET 0.000000 8.198502 5.703100
									CHANNELS 3 Xrotation Yrotation Zrotation
									JOINT HeadTop_End
									{
										OFFSET 0.000000 17.760803 13.332701
										CHANNELS 3 Xrotation Yrotation Zrotation
										End Site
										{
											OFFSET 0 0 0
										}
									}
								}
							}
						}
						JOINT LeftShoulder_virtual
						{
							OFFSET 0.000000 0.000000 0.000000
							CHANNELS 3 Xrotation Yrotation Zrotation
							JOINT LeftShoulder
							{
								OFFSET 6.292450 5.785301 -0.669000
								CHANNELS 3 Xrotation Yrotation Zrotation
								JOINT LeftShoulder_split
								{
									OFFSET 6.292450 5.785301 -0.669000
									CHANNELS 3 Xrotation Yrotation Zrotation
									JOINT LeftArm
									{
										OFFSET 13.907140 -6.093903 1.965100
										CHANNELS 3 Xrotation Yrotation Zrotation
										JOINT LeftForeArm
										{
											OFFSET 34.140198 0.000000 0.000000
											CHANNELS 3 Xrotation Yrotation Zrotation
											JOINT LeftHand
											{
												OFFSET 40.960209 0.000000 0.000000
												CHANNELS 3 Xrotation Yrotation Zrotation
												End Site
												{
													OFFSET 0 0 0
												}
											}
										}
									}
								}
							}
						}
						JOINT RightShoulder_virtual
						{
							OFFSET 0.000000 0.000000 0.000000
							CHANNELS 3 Xrotation Yrotation Zrotation
							JOINT RightShoulder
							{
								OFFSET -6.292450 5.785301 -0.669000
								CHANNELS 3 Xrotation Yrotation Zrotation
								JOINT RightShoulder_split
								{
									OFFSET -6.292450 5.785301 -0.669000
									CHANNELS 3 Xrotation Yrotation Zrotation
									JOINT RightArm
									{
										OFFSET -13.907140 -6.093903 1.965100
										CHANNELS 3 Xrotation Yrotation Zrotation
										JOINT RightForeArm
										{
											OFFSET -34.140198 0.000000 0.000000
											CHANNELS 3 Xrotation Yrotation Zrotation
											JOINT RightHand
											{
												OFFSET -40.960209 0.000000 0.000000
												CHANNELS 3 Xrotation Yrotation Zrotation
												End Site
												{
													OFFSET 0 0 0
												}
											}
										}
									}
								}
							}
						}
					}
				}
			}
		}
	}
}
MOTION
Frames: 4
Frame Time: 0.03333333
10.134113 107.992661 -6.532612 0.000000 0.000000 0.000000 9.527387 -31.567543 -16.460614 -31.045675 -6.490755 26.139866 38.124938 2.693192 8.116853 -7.662326 28.231609 -16.596183 -0.673560 -0.050248 -0.543717 0.000000 0.000000 0.000000 11.279480 -31.346105 -17.103130 -23.718809 2.059644 22.376151 11.300781 1.525931 5.030395 4.485419 12.298977 -4.876198 -3.537503 2.572435 -0.231389 0.000000 0.000000 0.000000 7.981340 -33.181978 -17.391400 17.060889 -5.059420 13.933967 14.053119 -0.537983 10.450277 1.564362 -1.233862 0.624559 0.000000 0.000000 0.000000 12.849910 -0.687370 9.437246 -9.103764 -6.065263 3.186729 36.757589 -14.507935 30.665135 0.000000 0.000000 0.000000 14.340409 -1.237100 9.642097 2.380399 -20.119646 -11.572330 0.946233 -1.236968 -0.417215 -35.519063 -27.339408 -57.113215 -0.933928 -15.023937 -1.470702 0.000000 0.000000 0.000000 12.365826 -1.069565 9.889403 2.465644 6.713015 11.480357 -4.677591 2.584919 -0.508311 0.487595 41.031050 26.839437 1.769440 22.872835 1.219899 0.000000 0.000000 0.000000 
9.968587 107.978508 -6.482765 0.000000 0.000000 0.000000 9.493547 -31.241142 -16.461946 -31.204990 -6.337861 26.298445 38.151562 2.630197 8.121269 -7.645463 27.951818 -16.598094 -0.626881 -0.047949 -0.540589 0.000000 0.000000 0.000000 11.232005 -30.954878 -17.107986 -23.723614 1.971249 22.365845 11.475114 1.493446 5.033394 4.418430 12.138949 -5.002041 -3.563137 2.561178 -0.261341 0.000000 0.000000 0.000000 7.944370 -32.800778 -17.397831 16.966188 -5.118482 14.088050 13.953195 -0.600062 10.505848 1.549086 -1.237279 0.620328 0.000000 0.000000 0.000000 12.758860 -0.725252 9.488472 -8.985420 -6.010972 3.223386 36.913535 -14.654379 30.679615 0.000000 0.000000 0.000000 14.220644 -1.270729 9.675223 2.357322 -20.147504 -11.690805 0.901715 -1.268423 -0.387266 -35.207542 -27.674801 -57.377926 -1.027122 -15.204377 -1.499464 0.000000 0.000000 0.000000 12.274334 -1.104542 9.930963 2.597792 6.939541 10.940080 -4.581463 2.651905 -0.579879 0.822954 40.777247 27.122417 1.749757 23.369716 1.142506 0.000000 0.000000 0.000000 
9.783862 107.981178 -6.418415 0.000000 0.000000 0.000000 9.446921 -30.808979 -16.447324 -31.346665 -6.233127 26.404142 38.123408 2.551722 8.144066 -7.589541 27.615623 -16.616706 -0.579641 -0.047635 -0.543145 0.000000 0.000000 0.000000 11.185470 -30.454393 -17.093786 -23.695799 1.929354 22.344025 11.635176 1.450050 5.018099 4.342914 11.917402 -5.146869 -3.573889 2.543209 -0.274437 0.000000 0.000000 0.000000 7.896663 -32.347298 -17.387469 16.860993 -5.173199 14.248573 13.846086 -0.660565 10.569435 1.528566 -1.249136 0.628650 0.000000 0.000000 0.000000 12.666915 -0.763240 9.548558 -8.878762 -5.973038 3.264037 37.067355 -14.819740 30.684410 0.000000 0.000000 0.000000 14.095081 -1.300346 9.717133 2.340077 -20.160319 -11.799067 0.867876 -1.299150 -0.368421 -34.808232 -27.953147 -57.634721 -1.128046 -15.392152 -1.530058 0.000000 0.000000 0.000000 12.178957 -1.139689 9.978316 2.740969 7.128044 10.394045 -4.482931 2.700197 -0.650196 1.164864 40.566119 27.404066 1.736696 23.880776 1.073680 0.000000 0.000000 0.000000 
9.582423 107.998291 -6.334190 0.000000 0.000000 0.000000 9.392232 -30.287210 -16.427266 -31.456675 -6.192705 26.461066 38.066710 2.483052 8.178754 -7.498545 27.266889 -16.665294 -0.521157 -0.046715 -0.554004 0.000000 0.000000 0.000000 11.136694 -29.856427 -17.074578 -23.630667 1.933994 22.313856 11.771507 1.386147 4.991826 4.251362 11.629601 -5.345791 -3.523504 2.519535 -0.268954 0.000000 0.000000 0.000000 7.843728 -31.834596 -17.367855 16.743727 -5.227264 14.418451 13.731863 -0.720138 10.640677 1.503100 -1.266490 0.624331 0.000000 0.000000 0.000000 12.573423 -0.802346 9.618185 -8.787779 -5.951875 3.307602 37.229370 -14.995996 30.680322 0.000000 0.000000 0.000000 13.963838 -1.327083 9.768568 2.331560 -20.152678 -11.885220 0.846562 -1.328139 -0.365218 -34.335071 -28.180788 -57.883456 -1.231335 -15.580005 -1.559833 0.000000 0.000000 0.000000 12.081917 -1.175772 10.031369 2.895289 7.274266 9.838062 -4.397552 2.738231 -0.705593 1.502133 40.394873 27.685303 1.728021 24.397687 1.017629 0.000000 0.000000 0.000000 
